<mxfile host="65bd71144e">
    <diagram id="EsVaXnBHlEEKosVL50em" name="Page-1">
        <mxGraphModel dx="1018" dy="753" grid="1" gridSize="10" guides="1" tooltips="1" connect="1" arrows="1" fold="1" page="1" pageScale="1" pageWidth="827" pageHeight="1169" math="0" shadow="0">
            <root>
                <mxCell id="0"/>
                <mxCell id="1" parent="0"/>
                <mxCell id="0xS0S5AWN3297I2jAuM9-66" value="Server" style="shape=umlLifeline;perimeter=lifelinePerimeter;whiteSpace=wrap;html=1;container=1;collapsible=0;recursiveResize=0;outlineConnect=0;fontSize=14;" parent="1" vertex="1">
                    <mxGeometry x="630" width="120" height="1100" as="geometry"/>
                </mxCell>
                <mxCell id="16" value="" style="html=1;points=[];perimeter=orthogonalPerimeter;fontSize=14;" parent="0xS0S5AWN3297I2jAuM9-66" vertex="1">
                    <mxGeometry x="55" y="160" width="10" height="30" as="geometry"/>
                </mxCell>
                <mxCell id="24" value="" style="html=1;points=[];perimeter=orthogonalPerimeter;fontSize=14;" parent="0xS0S5AWN3297I2jAuM9-66" vertex="1">
                    <mxGeometry x="55" y="770" width="10" height="300" as="geometry"/>
                </mxCell>
                <mxCell id="29" value="" style="html=1;points=[];perimeter=orthogonalPerimeter;fontSize=14;" parent="0xS0S5AWN3297I2jAuM9-66" vertex="1">
                    <mxGeometry x="60" y="1034" width="10" height="30" as="geometry"/>
                </mxCell>
                <mxCell id="30" value="&lt;span style=&quot;text-align: center; font-size: 14px;&quot;&gt;&lt;font face=&quot;Lucida Console&quot; style=&quot;font-size: 14px;&quot;&gt;[Authenticated]&lt;br style=&quot;font-size: 14px;&quot;&gt;acccumulatePoints()&lt;/font&gt;&lt;/span&gt;" style="edgeStyle=orthogonalEdgeStyle;html=1;align=left;spacingLeft=2;endArrow=block;rounded=0;fontSize=14;endSize=10;" parent="0xS0S5AWN3297I2jAuM9-66" source="24" target="29" edge="1">
                    <mxGeometry x="-0.0435" y="10" relative="1" as="geometry">
                        <mxPoint x="65" y="1010" as="sourcePoint"/>
                        <Array as="points">
                            <mxPoint x="110" y="1000"/>
                            <mxPoint x="110" y="1034"/>
                        </Array>
                        <mxPoint y="1" as="offset"/>
                    </mxGeometry>
                </mxCell>
                <mxCell id="73" value="" style="html=1;points=[];perimeter=orthogonalPerimeter;fontSize=14;" parent="0xS0S5AWN3297I2jAuM9-66" vertex="1">
                    <mxGeometry x="55" y="210" width="10" height="56" as="geometry"/>
                </mxCell>
                <mxCell id="0xS0S5AWN3297I2jAuM9-64" value="&lt;span style=&quot;font-family: &amp;quot;lucida console&amp;quot;; font-size: 14px;&quot;&gt;[Invalid] Message(Failed)&lt;/span&gt;" style="edgeStyle=none;rounded=0;orthogonalLoop=1;jettySize=auto;html=1;startArrow=none;startFill=0;endArrow=open;endFill=0;dashed=1;fontSize=14;endSize=10;" parent="1" edge="1" target="17">
                    <mxGeometry x="0.2271" relative="1" as="geometry">
                        <mxPoint x="1025" y="676" as="sourcePoint"/>
                        <mxPoint x="400" y="676" as="targetPoint"/>
                        <Array as="points">
                            <mxPoint x="460" y="676"/>
                        </Array>
                        <mxPoint as="offset"/>
                    </mxGeometry>
                </mxCell>
                <mxCell id="gZEta6P0kwbHWT-XyPAT-22" value="&lt;span style=&quot;font-family: &amp;quot;lucida console&amp;quot;; font-size: 14px;&quot;&gt;[Valid] Message(OK)&lt;/span&gt;" style="edgeStyle=none;rounded=0;orthogonalLoop=1;jettySize=auto;html=1;startArrow=none;startFill=0;endArrow=open;endFill=0;dashed=1;fontSize=14;endSize=10;" parent="1" edge="1" target="17">
                    <mxGeometry x="0.2372" relative="1" as="geometry">
                        <mxPoint x="1025" y="676" as="sourcePoint"/>
                        <mxPoint x="407.5" y="706" as="targetPoint"/>
                        <Array as="points">
                            <mxPoint x="970" y="676"/>
                            <mxPoint x="920" y="706"/>
                        </Array>
                        <mxPoint as="offset"/>
                    </mxGeometry>
                </mxCell>
                <mxCell id="43" value="&lt;span style=&quot;background-color: rgb(255, 255, 255); font-size: 14px;&quot;&gt;[choose Digital wallet payment]&lt;/span&gt;" style="text;html=1;align=center;verticalAlign=middle;resizable=0;points=[];autosize=1;strokeColor=none;fontSize=14;" parent="1" vertex="1">
                    <mxGeometry x="95" y="550" width="210" height="20" as="geometry"/>
                </mxCell>
                <mxCell id="59" value="creditCardInfo" style="html=1;verticalAlign=bottom;endArrow=open;dashed=1;endSize=10;fontSize=14;fontFamily=Lucida Console;labelBackgroundColor=#ffffff;" parent="1" target="17" edge="1">
                    <mxGeometry x="-0.0085" y="-10" relative="1" as="geometry">
                        <mxPoint x="95" y="430" as="sourcePoint"/>
                        <mxPoint x="387.5" y="430" as="targetPoint"/>
                        <Array as="points">
                            <mxPoint x="320" y="430"/>
                        </Array>
                        <mxPoint as="offset"/>
                    </mxGeometry>
                </mxCell>
                <mxCell id="60" value="&lt;span style=&quot;font-family: &amp;quot;lucida console&amp;quot; ; font-size: 14px&quot;&gt;digitalWalletInfo&lt;/span&gt;" style="html=1;verticalAlign=bottom;endArrow=open;dashed=1;endSize=10;strokeWidth=1;fontSize=14;" parent="1" target="17" edge="1">
                    <mxGeometry x="-0.0085" y="-10" relative="1" as="geometry">
                        <mxPoint x="95" y="640" as="sourcePoint"/>
                        <mxPoint x="380" y="620" as="targetPoint"/>
                        <Array as="points">
                            <mxPoint x="330" y="640"/>
                        </Array>
                        <mxPoint as="offset"/>
                    </mxGeometry>
                </mxCell>
                <mxCell id="61" value="authenticate(creditCardInfo)" style="html=1;verticalAlign=bottom;endArrow=block;rounded=0;fontSize=14;fontFamily=Lucida Console;endSize=10;" parent="1" source="17" target="40" edge="1">
                    <mxGeometry width="80" relative="1" as="geometry">
                        <mxPoint x="400" y="444" as="sourcePoint"/>
                        <mxPoint x="750" y="470" as="targetPoint"/>
                        <Array as="points">
                            <mxPoint x="490" y="440"/>
                        </Array>
                    </mxGeometry>
                </mxCell>
                <mxCell id="0xS0S5AWN3297I2jAuM9-30" value="&lt;span style=&quot;font-family: &amp;quot;lucida console&amp;quot;; font-size: 14px;&quot;&gt;getDigitalWalletInfo()&lt;/span&gt;" style="rounded=0;orthogonalLoop=1;jettySize=auto;html=1;startArrow=none;startFill=0;endArrow=block;endFill=1;fontSize=14;endSize=10;" parent="1" source="17" edge="1">
                    <mxGeometry relative="1" as="geometry">
                        <mxPoint x="95" y="600" as="targetPoint"/>
                        <mxPoint x="400" y="590" as="sourcePoint"/>
                        <Array as="points">
                            <mxPoint x="310" y="600"/>
                        </Array>
                    </mxGeometry>
                </mxCell>
                <mxCell id="0xS0S5AWN3297I2jAuM9-8" value="Purchase page" style="shape=umlLifeline;perimeter=lifelinePerimeter;whiteSpace=wrap;html=1;container=1;collapsible=0;recursiveResize=0;outlineConnect=0;fontSize=14;" parent="1" vertex="1">
                    <mxGeometry x="320" width="145" height="1090" as="geometry"/>
                </mxCell>
                <mxCell id="2" value="" style="html=1;points=[];perimeter=orthogonalPerimeter;fontSize=14;" parent="0xS0S5AWN3297I2jAuM9-8" vertex="1">
                    <mxGeometry x="67.5" y="80" width="10" height="30" as="geometry"/>
                </mxCell>
                <mxCell id="17" value="" style="html=1;points=[];perimeter=orthogonalPerimeter;fontSize=14;" parent="0xS0S5AWN3297I2jAuM9-8" vertex="1">
                    <mxGeometry x="67.5" y="390" width="10" height="320" as="geometry"/>
                </mxCell>
                <mxCell id="15" value="" style="html=1;points=[];perimeter=orthogonalPerimeter;fontSize=14;" parent="0xS0S5AWN3297I2jAuM9-8" vertex="1">
                    <mxGeometry x="67.5" y="213" width="10" height="60" as="geometry"/>
                </mxCell>
                <mxCell id="23" value="" style="html=1;points=[];perimeter=orthogonalPerimeter;fontSize=14;" parent="0xS0S5AWN3297I2jAuM9-8" vertex="1">
                    <mxGeometry x="67.5" y="750" width="10" height="160" as="geometry"/>
                </mxCell>
                <mxCell id="45" value="[&lt;span style=&quot;font-size: 14px;&quot;&gt;choose Credit card payment]&lt;/span&gt;" style="text;html=1;align=center;verticalAlign=middle;resizable=0;points=[];autosize=1;strokeColor=none;fontSize=14;labelBackgroundColor=#ffffff;" parent="1" vertex="1">
                    <mxGeometry x="95" y="360" width="200" height="20" as="geometry"/>
                </mxCell>
                <mxCell id="0xS0S5AWN3297I2jAuM9-11" value="&lt;font face=&quot;Lucida Console&quot; style=&quot;font-size: 14px;&quot;&gt;viewInvoice()&lt;/font&gt;" style="rounded=0;orthogonalLoop=1;jettySize=auto;html=1;endArrow=block;endFill=1;startArrow=none;startFill=0;fontSize=14;endSize=10;" parent="1" source="xFDVyft1GGpR64SZNUxC-1" target="2" edge="1">
                    <mxGeometry x="0.0085" y="-1" relative="1" as="geometry">
                        <mxPoint x="360" y="90" as="targetPoint"/>
                        <mxPoint x="120" y="85" as="sourcePoint"/>
                        <mxPoint as="offset"/>
                        <Array as="points">
                            <mxPoint x="310" y="85"/>
                        </Array>
                    </mxGeometry>
                </mxCell>
                <mxCell id="0xS0S5AWN3297I2jAuM9-45" value="[Successfully Authenticated]&lt;br style=&quot;font-size: 14px;&quot;&gt;purchase()&amp;nbsp;" style="edgeStyle=none;rounded=0;orthogonalLoop=1;jettySize=auto;html=1;startArrow=none;startFill=0;endArrow=block;endFill=1;fontSize=14;endSize=10;fontFamily=Lucida Console;" parent="1" target="23" edge="1" source="xFDVyft1GGpR64SZNUxC-1">
                    <mxGeometry x="-0.027" relative="1" as="geometry">
                        <mxPoint x="95" y="750" as="sourcePoint"/>
                        <mxPoint x="420" y="700" as="targetPoint"/>
                        <Array as="points">
                            <mxPoint x="340" y="760"/>
                        </Array>
                        <mxPoint as="offset"/>
                    </mxGeometry>
                </mxCell>
                <mxCell id="gZEta6P0kwbHWT-XyPAT-6" value="&lt;span style=&quot;font-family: &amp;quot;lucida console&amp;quot;; font-size: 14px;&quot;&gt;[Authenticated]&lt;/span&gt;&lt;br style=&quot;font-family: &amp;quot;lucida console&amp;quot;; font-size: 14px;&quot;&gt;&lt;span style=&quot;font-family: &amp;quot;lucida console&amp;quot;; font-size: 14px;&quot;&gt;payByPoint(Points)&lt;/span&gt;" style="edgeStyle=none;rounded=0;orthogonalLoop=1;jettySize=auto;html=1;fontSize=14;endArrow=block;endFill=1;endSize=10;" parent="1" target="15" edge="1">
                    <mxGeometry relative="1" as="geometry">
                        <Array as="points">
                            <mxPoint x="350" y="219"/>
                        </Array>
                        <mxPoint x="403" y="219" as="targetPoint"/>
                        <mxPoint x="95" y="219" as="sourcePoint"/>
                    </mxGeometry>
                </mxCell>
                <mxCell id="0xS0S5AWN3297I2jAuM9-10" value="Customer" style="shape=umlLifeline;participant=umlActor;perimeter=lifelinePerimeter;whiteSpace=wrap;html=1;container=1;collapsible=0;recursiveResize=0;verticalAlign=top;spacingTop=36;outlineConnect=0;fontSize=14;" parent="1" vertex="1">
                    <mxGeometry x="80" width="20" height="1090" as="geometry"/>
                </mxCell>
                <mxCell id="H4JG7rDhMhPvmTt1vxnm-16" value="Bank System" style="shape=umlLifeline;perimeter=lifelinePerimeter;whiteSpace=wrap;html=1;container=1;collapsible=0;recursiveResize=0;outlineConnect=0;fontSize=14;" parent="1" vertex="1">
                    <mxGeometry x="827" width="120" height="800" as="geometry"/>
                </mxCell>
                <mxCell id="40" value="" style="html=1;points=[];perimeter=orthogonalPerimeter;fontSize=14;" parent="H4JG7rDhMhPvmTt1vxnm-16" vertex="1">
                    <mxGeometry x="55" y="430" width="10" height="100" as="geometry"/>
                </mxCell>
                <mxCell id="0xS0S5AWN3297I2jAuM9-32" value="Digital Wallet System" style="shape=umlLifeline;perimeter=lifelinePerimeter;whiteSpace=wrap;html=1;container=1;collapsible=0;recursiveResize=0;outlineConnect=0;fontSize=14;" parent="1" vertex="1">
                    <mxGeometry x="970" width="120" height="800" as="geometry"/>
                </mxCell>
                <mxCell id="41" value="" style="html=1;points=[];perimeter=orthogonalPerimeter;fontSize=14;" parent="0xS0S5AWN3297I2jAuM9-32" vertex="1">
                    <mxGeometry x="55" y="610" width="10" height="100" as="geometry"/>
                </mxCell>
                <mxCell id="gZEta6P0kwbHWT-XyPAT-16" value="[choose pay by point]" style="text;html=1;align=center;verticalAlign=middle;resizable=0;points=[];autosize=1;strokeColor=none;fillColor=none;fontSize=14;" parent="1" vertex="1">
                    <mxGeometry x="94" y="124" width="150" height="20" as="geometry"/>
                </mxCell>
                <mxCell id="auK02p0XqwQrwLWtQNWY-16" value="&lt;span style=&quot;font-family: &amp;quot;lucida console&amp;quot;; font-size: 14px;&quot;&gt;[Invalid]&amp;nbsp;&lt;/span&gt;&lt;span style=&quot;font-family: &amp;quot;lucida console&amp;quot;; font-size: 14px;&quot;&gt;message(Failed)&lt;/span&gt;" style="rounded=0;orthogonalLoop=1;jettySize=auto;html=1;dashed=1;endArrow=open;endFill=0;fontSize=14;endSize=10;" parent="1" source="40" target="17" edge="1">
                    <mxGeometry relative="1" as="geometry">
                        <mxPoint x="730" y="450" as="sourcePoint"/>
                        <mxPoint x="460" y="450" as="targetPoint"/>
                        <Array as="points">
                            <mxPoint x="640" y="470"/>
                        </Array>
                    </mxGeometry>
                </mxCell>
                <mxCell id="gZEta6P0kwbHWT-XyPAT-28" value="&lt;span style=&quot;font-family: &amp;#34;lucida console&amp;#34;&quot;&gt;[Failed Transaction]&lt;/span&gt;&lt;br style=&quot;font-family: &amp;#34;lucida console&amp;#34;&quot;&gt;&lt;span style=&quot;font-family: &amp;#34;lucida console&amp;#34;&quot;&gt;message(Failed)&lt;/span&gt;&lt;font face=&quot;Lucida Console&quot; style=&quot;font-size: 14px&quot;&gt;&lt;br&gt;&lt;/font&gt;" style="html=1;verticalAlign=bottom;endArrow=open;dashed=1;endSize=10;rounded=0;fontSize=14;" parent="1" source="24" target="23" edge="1">
                    <mxGeometry x="0.1738" y="20" relative="1" as="geometry">
                        <mxPoint x="1240" y="850" as="sourcePoint"/>
                        <mxPoint x="470" y="810" as="targetPoint"/>
                        <Array as="points">
                            <mxPoint x="680" y="820"/>
                            <mxPoint x="660" y="880"/>
                        </Array>
                        <mxPoint as="offset"/>
                    </mxGeometry>
                </mxCell>
                <mxCell id="5BrfaUf6oUBGYmDF4iaM-1" value="&lt;font face=&quot;Lucida Console&quot; style=&quot;font-size: 14px;&quot;&gt;logTransaction()&lt;/font&gt;" style="html=1;verticalAlign=bottom;endArrow=block;rounded=0;fontSize=14;endSize=10;" parent="1" source="23" target="24" edge="1">
                    <mxGeometry x="-0.0973" y="-10" width="80" relative="1" as="geometry">
                        <mxPoint x="470" y="770" as="sourcePoint"/>
                        <mxPoint x="1250" y="680" as="targetPoint"/>
                        <Array as="points">
                            <mxPoint x="640" y="770"/>
                        </Array>
                        <mxPoint as="offset"/>
                    </mxGeometry>
                </mxCell>
                <mxCell id="xFDVyft1GGpR64SZNUxC-1" value="" style="html=1;points=[];perimeter=orthogonalPerimeter;fontSize=14;" parent="1" vertex="1">
                    <mxGeometry x="85" y="80" width="10" height="990" as="geometry"/>
                </mxCell>
                <mxCell id="5" value="&lt;span style=&quot;font-family: &amp;quot;lucida console&amp;quot;; font-size: 14px;&quot;&gt;[Valid] message(OK)&lt;/span&gt;" style="html=1;verticalAlign=bottom;endArrow=open;dashed=1;endSize=10;fontSize=14;rounded=0;" parent="1" source="40" target="17" edge="1">
                    <mxGeometry x="0.035" y="10" relative="1" as="geometry">
                        <mxPoint x="743" y="510" as="sourcePoint"/>
                        <mxPoint x="470" y="500" as="targetPoint"/>
                        <Array as="points">
                            <mxPoint x="840" y="470"/>
                            <mxPoint x="780" y="510"/>
                        </Array>
                        <mxPoint as="offset"/>
                    </mxGeometry>
                </mxCell>
                <mxCell id="auK02p0XqwQrwLWtQNWY-29" value="&lt;span style=&quot;color: rgb(0 , 0 , 0) ; font-family: &amp;quot;lucida console&amp;quot; ; font-size: 14px ; font-style: normal ; font-weight: 400 ; letter-spacing: normal ; text-align: center ; text-indent: 0px ; text-transform: none ; word-spacing: 0px ; display: inline ; float: none&quot;&gt;authenticate(digitalWalletInfo)&lt;/span&gt;" style="edgeStyle=none;rounded=0;orthogonalLoop=1;jettySize=auto;html=1;startArrow=none;startFill=0;endArrow=block;endFill=1;fontSize=14;endSize=9;spacing=2;" parent="1" source="17" target="41" edge="1">
                    <mxGeometry relative="1" as="geometry">
                        <mxPoint x="470" y="610" as="sourcePoint"/>
                        <mxPoint x="950" y="570" as="targetPoint"/>
                        <Array as="points">
                            <mxPoint x="540" y="650"/>
                        </Array>
                    </mxGeometry>
                </mxCell>
                <mxCell id="66" value="[Successful Transaction]&lt;br&gt;message(OK)" style="html=1;verticalAlign=bottom;endArrow=open;dashed=1;endSize=10;fontFamily=Lucida Console;strokeWidth=1;fontSize=14;" parent="1" source="24" target="23" edge="1">
                    <mxGeometry x="-0.027" y="20" relative="1" as="geometry">
                        <mxPoint x="1200" y="800" as="sourcePoint"/>
                        <mxPoint x="550" y="800" as="targetPoint"/>
                        <Array as="points">
                            <mxPoint x="560" y="820"/>
                        </Array>
                        <mxPoint as="offset"/>
                    </mxGeometry>
                </mxCell>
                <mxCell id="68" value="&lt;span style=&quot;font-family: &amp;quot;lucida console&amp;quot;; font-size: 14px;&quot;&gt;[Unauthenticated]&amp;nbsp;&lt;/span&gt;&lt;span style=&quot;font-family: &amp;quot;lucida console&amp;quot;; font-size: 14px;&quot;&gt;authenticate()&lt;/span&gt;" style="edgeStyle=none;rounded=0;orthogonalLoop=1;jettySize=auto;html=1;fontSize=14;endArrow=block;endFill=1;endSize=10;" parent="1" source="xFDVyft1GGpR64SZNUxC-1" target="16" edge="1">
                    <mxGeometry relative="1" as="geometry">
                        <Array as="points">
                            <mxPoint x="366" y="160"/>
                        </Array>
                        <mxPoint x="1240" y="200" as="targetPoint"/>
                        <mxPoint x="120" y="170" as="sourcePoint"/>
                    </mxGeometry>
                </mxCell>
                <mxCell id="72" value="&lt;span style=&quot;font-family: &amp;quot;lucida console&amp;quot;; font-size: 14px;&quot;&gt;[Unauthenticated]&amp;nbsp;&lt;/span&gt;&lt;span style=&quot;font-family: &amp;quot;lucida console&amp;quot;; font-size: 14px;&quot;&gt;authenticate()&lt;/span&gt;" style="edgeStyle=none;rounded=0;orthogonalLoop=1;jettySize=auto;html=1;fontSize=14;endArrow=block;endFill=1;endSize=10;" parent="1" target="24" edge="1">
                    <mxGeometry relative="1" as="geometry">
                        <Array as="points">
                            <mxPoint x="376" y="990"/>
                        </Array>
                        <mxPoint x="705" y="990" as="targetPoint"/>
                        <mxPoint x="95" y="990" as="sourcePoint"/>
                    </mxGeometry>
                </mxCell>
                <mxCell id="58" value="[invoice is not fully paid&lt;span style=&quot;font-size: 14px;&quot;&gt;]&lt;/span&gt;" style="text;html=1;align=center;verticalAlign=middle;resizable=0;points=[];autosize=1;strokeColor=none;fontSize=14;labelBackgroundColor=#ffffff;" parent="1" vertex="1">
                    <mxGeometry x="100" y="304" width="160" height="20" as="geometry"/>
                </mxCell>
                <mxCell id="38" value="&lt;span style=&quot;font-size: 14px;&quot;&gt;getCreditCardInfo()&lt;/span&gt;" style="rounded=0;orthogonalLoop=1;jettySize=auto;html=1;startArrow=none;startFill=0;endArrow=block;endFill=1;fontSize=14;endSize=10;fontFamily=Lucida Console;labelBackgroundColor=#ffffff;" parent="1" source="17" edge="1">
                    <mxGeometry relative="1" as="geometry">
                        <mxPoint x="95" y="400" as="targetPoint"/>
                        <Array as="points">
                            <mxPoint x="370" y="400"/>
                        </Array>
                        <mxPoint x="430" y="350" as="sourcePoint"/>
                    </mxGeometry>
                </mxCell>
                <mxCell id="56" value="updateInvoice()" style="html=1;align=left;spacingLeft=2;endArrow=block;rounded=0;fontFamily=Lucida Console;fontSize=14;endFill=1;strokeWidth=1;endSize=10;" parent="1" source="73" edge="1" target="15">
                    <mxGeometry x="0.4454" relative="1" as="geometry">
                        <mxPoint x="714" y="267" as="sourcePoint"/>
                        <Array as="points">
                            <mxPoint x="650" y="256"/>
                        </Array>
                        <mxPoint x="400" y="256" as="targetPoint"/>
                        <mxPoint as="offset"/>
                    </mxGeometry>
                </mxCell>
                <mxCell id="74" value="updatePoint()" style="html=1;verticalAlign=bottom;endArrow=block;endSize=10;fontFamily=Lucida Console;fontSize=14;" parent="1" target="73" edge="1" source="15">
                    <mxGeometry x="-0.042" y="-10" width="80" relative="1" as="geometry">
                        <mxPoint x="407.5" y="226" as="sourcePoint"/>
                        <mxPoint x="480" y="216" as="targetPoint"/>
                        <Array as="points">
                            <mxPoint x="510" y="226"/>
                        </Array>
                        <mxPoint as="offset"/>
                    </mxGeometry>
                </mxCell>
                <mxCell id="70" value="Optional" style="shape=umlFrame;whiteSpace=wrap;html=1;fontSize=14;width=70;height=30;" parent="1" vertex="1">
                    <mxGeometry y="920" width="930" height="160" as="geometry"/>
                </mxCell>
                <mxCell id="48" value="" style="endArrow=none;dashed=1;html=1;strokeWidth=1;fontSize=14;endSize=10;rounded=0;entryX=1;entryY=0.514;entryDx=0;entryDy=0;entryPerimeter=0;exitX=0.001;exitY=0.511;exitDx=0;exitDy=0;exitPerimeter=0;" parent="1" source="46" target="46" edge="1">
                    <mxGeometry width="50" height="50" relative="1" as="geometry">
                        <mxPoint x="-3" y="550" as="sourcePoint"/>
                        <mxPoint x="1310" y="530" as="targetPoint"/>
                        <Array as="points"/>
                    </mxGeometry>
                </mxCell>
                <mxCell id="46" value="Alt" style="shape=umlFrame;whiteSpace=wrap;html=1;fontSize=14;" parent="1" vertex="1">
                    <mxGeometry x="10" y="350" width="1090" height="370" as="geometry"/>
                </mxCell>
                <mxCell id="57" value="External payment" style="shape=umlFrame;whiteSpace=wrap;html=1;width=70;height=40;fontSize=14;" parent="1" vertex="1">
                    <mxGeometry y="300" width="1110" height="430" as="geometry"/>
                </mxCell>
                <mxCell id="31" value="Optional" style="shape=umlFrame;whiteSpace=wrap;html=1;fontSize=14;width=70;height=30;" parent="1" vertex="1">
                    <mxGeometry y="120" width="760" height="160" as="geometry"/>
                </mxCell>
            </root>
        </mxGraphModel>
    </diagram>
</mxfile>